<svg height="496pt" viewBox="-24 0 496 496" width="496pt" xmlns="http://www.w3.org/2000/svg"><path d="m392.160156 372c-20 22.640625-44.472656 41.28125-72 54.398438-29.113281 13.839843-61.753906 21.601562-96.160156 21.601562-34.390625 0-67.03125-7.761719-96.160156-21.601562-27.511719-13.191407-52-31.757813-72-54.398438-34.710938-39.441406-55.839844-91.28125-55.839844-148v48c0 56.71875 21.128906 108.480469 55.839844 147.921875v.078125c20 22.640625 44.488281 41.199219 72 54.320312v.078126c29.128906 13.839843 61.769531 21.601562 96.160156 21.601562 34.40625 0 67.046875-7.761719 96.160156-21.601562 27.527344-13.117188 52-31.757813 72-54.398438v-.078125c34.808594-39.441406 55.839844-91.203125 55.839844-147.921875v-48c0 56.71875-21.128906 108.558594-55.839844 148zm0 0" fill="#f6bb42"/><path d="m448 224c0 56.71875-21.128906 108.558594-55.839844 148-20 22.640625-44.472656 41.28125-72 54.398438-29.113281 13.839843-61.753906 21.601562-96.160156 21.601562-34.390625 0-67.03125-7.761719-96.160156-21.601562-27.511719-13.191407-52-31.757813-72-54.398438-34.710938-39.441406-55.839844-91.28125-55.839844-148 0-123.679688 100.328125-224 224-224 123.769531 0 224 100.320312 224 224zm-48 0c0-97.199219-78.800781-176-176-176s-176 78.800781-176 176 78.800781 176 176 176 176-78.800781 176-176zm0 0" fill="#ffce54"/><path d="m224 48c97.199219 0 176 78.800781 176 176s-78.800781 176-176 176-176-78.800781-176-176 78.800781-176 176-176zm40.160156 237.28125c23.917969-13.839844 40-39.679688 40-69.28125 0-44.160156-35.832031-80-80-80-44.230468 0-80 35.839844-80 80 0 29.601562 16.097656 55.441406 39.917969 69.28125h.082031v26.71875h80zm0 0" fill="#f6bb42"/><path d="m192.160156 200c8.816406 0 16 7.199219 16 16 0 8.878906-7.183594 16-16 16-8.871094 0-16-7.121094-16-16 0-8.800781 7.121094-16 16-16zm0 0" fill="#f6bb42"/><path d="m256.160156 200c8.816406 0 16 7.199219 16 16 0 8.878906-7.183594 16-16 16-8.871094 0-16-7.121094-16-16 0-8.800781 7.121094-16 16-16zm0 0" fill="#f6bb42"/><path d="m264.160156 285.28125v26.71875h-80v-26.71875h-.082031c-23.832031-13.839844-39.917969-39.679688-39.917969-69.28125 0-44.160156 35.769532-80 80-80 44.167969 0 80 35.839844 80 80 0 29.601562-16.082031 55.441406-40 69.28125zm8-69.28125c0-8.800781-7.183594-16-16-16-8.871094 0-16 7.199219-16 16 0 8.878906 7.128906 16 16 16 8.808594 0 16-7.121094 16-16zm-64 0c0-8.800781-7.183594-16-16-16-8.871094 0-16 7.199219-16 16 0 8.878906 7.128906 16 16 16 8.808594 0 16-7.121094 16-16zm0 0" fill="#ffce54"/><path d="m400.167969 362.304688c-2.59375 3.296874-5.246094 6.550781-8.015625 9.695312-2.578125 2.929688-5.25 5.785156-7.984375 8.574219v48c2.734375-2.796875 5.40625-5.644531 7.984375-8.574219v-.078125c2.769531-3.144531 5.421875-6.386719 8.015625-9.675781zm0 0" fill="#edab37"/><path d="m216 447.777344v48c2.65625.085937 5.3125.222656 8 .222656s5.34375-.136719 8-.222656v-48c-2.65625.085937-5.3125.222656-8 .222656s-5.34375-.136719-8-.222656zm0 0" fill="#edab37"/><path d="m312.144531 429.945312v48c2.6875-1.152343 5.390625-2.296874 8.015625-3.546874 2.703125-1.285157 5.34375-2.664063 7.984375-4.054688v-48c-2.640625 1.390625-5.28125 2.769531-7.984375 4.054688-2.632812 1.25-5.328125 2.402343-8.015625 3.546874zm0 0" fill="#edab37"/><path d="m63.839844 428.574219v-48c-2.734375-2.789063-5.40625-5.644531-8-8.574219-2.769532-3.144531-5.425782-6.390625-8-9.679688v47.917969c2.574218 3.289063 5.230468 6.539063 8 9.683594v.078125c2.601562 2.929688 5.273437 5.792969 8 8.574219zm0 0" fill="#edab37"/><path d="m135.871094 477.953125v-48c-2.703125-1.160156-5.390625-2.296875-8.03125-3.554687-2.703125-1.285157-5.34375-2.679688-7.96875-4.070313v47.9375c2.625 1.390625 5.265625 2.773437 7.96875 4.054687v.078126c2.648437 1.257812 5.328125 2.402343 8.03125 3.554687zm0 0" fill="#edab37"/><g fill="#f6bb42"><path d="m224.375 32c-4.421875 0-8.046875-3.574219-8.046875-8s3.542969-8 7.953125-8h.09375c4.410156 0 8 3.574219 8 8s-3.589844 8-8 8zm0 0"/><path d="m224.375 432c-4.421875 0-8.046875-3.574219-8.046875-8s3.542969-8 7.953125-8h.09375c4.410156 0 8 3.574219 8 8s-3.589844 8-8 8zm0 0"/><path d="m172.609375 38.824219c-4.425781 0-8.050781-3.578125-8.050781-8 0-4.425781 3.546875-8 7.953125-8h.097656c4.40625 0 8 3.574219 8 8 0 4.421875-3.59375 8-8 8zm0 0"/><path d="m276.144531 425.183594c-4.425781 0-8.046875-3.574219-8.046875-8 0-4.421875 3.542969-8 7.949219-8h.097656c4.40625 0 8 3.578125 8 8 0 4.425781-3.601562 8-8 8zm0 0"/><path d="m124.375 58.800781c-4.421875 0-8.046875-3.578125-8.046875-8 0-4.425781 3.542969-8 7.953125-8h.09375c4.410156 0 8 3.574219 8 8 0 4.421875-3.589844 8-8 8zm0 0"/><path d="m324.375 405.207031c-4.421875 0-8.046875-3.574219-8.046875-8 0-4.421875 3.542969-8 7.953125-8h.09375c4.410156 0 8 3.578125 8 8 0 4.425781-3.589844 8-8 8zm0 0"/><path d="m82.953125 90.574219c-4.425781 0-8.050781-3.574219-8.050781-8 0-4.421875 3.546875-8 7.953125-8h.097656c4.40625 0 8 3.578125 8 8 0 4.425781-3.59375 8-8 8zm0 0"/><path d="m365.800781 373.433594c-4.425781 0-8.046875-3.578125-8.046875-8 0-4.425782 3.542969-8 7.949219-8h.097656c4.40625 0 8 3.574218 8 8 0 4.421875-3.601562 8-8 8zm0 0"/><path d="m51.167969 132c-4.425781 0-8.046875-3.574219-8.046875-8s3.542968-8 7.949218-8h.097657c4.40625 0 8 3.574219 8 8s-3.59375 8-8 8zm0 0"/><path d="m397.574219 332.007812c-4.421875 0-8.046875-3.574218-8.046875-8 0-4.421874 3.542968-8 7.953125-8h.09375c4.410156 0 8 3.578126 8 8 0 4.425782-3.589844 8-8 8zm0 0"/><path d="m31.183594 180.238281c-4.421875 0-8.046875-3.574219-8.046875-8 0-4.421875 3.542969-8 7.953125-8h.09375c4.410156 0 8 3.578125 8 8 0 4.425781-3.589844 8-8 8zm0 0"/><path d="m417.558594 283.777344c-4.421875 0-8.046875-3.578125-8.046875-8 0-4.425782 3.542969-8 7.953125-8h.09375c4.410156 0 8 3.574218 8 8 0 4.421875-3.589844 8-8 8zm0 0"/><path d="m24.375 232.007812c-4.421875 0-8.046875-3.574218-8.046875-8 0-4.421874 3.542969-8 7.953125-8h.09375c4.410156 0 8 3.578126 8 8 0 4.425782-3.589844 8-8 8zm0 0"/><path d="m424.375 232.007812c-4.421875 0-8.046875-3.574218-8.046875-8 0-4.421874 3.542969-8 7.953125-8h.09375c4.410156 0 8 3.578126 8 8 0 4.425782-3.589844 8-8 8zm0 0"/><path d="m31.183594 283.777344c-4.421875 0-8.046875-3.578125-8.046875-8 0-4.425782 3.542969-8 7.953125-8h.09375c4.410156 0 8 3.574218 8 8 0 4.421875-3.589844 8-8 8zm0 0"/><path d="m417.558594 180.238281c-4.421875 0-8.046875-3.574219-8.046875-8 0-4.421875 3.542969-8 7.953125-8h.09375c4.410156 0 8 3.578125 8 8 0 4.425781-3.589844 8-8 8zm0 0"/><path d="m51.167969 332.007812c-4.425781 0-8.046875-3.574218-8.046875-8 0-4.421874 3.542968-8 7.949218-8h.097657c4.40625 0 8 3.578126 8 8 0 4.425782-3.59375 8-8 8zm0 0"/><path d="m397.574219 132.007812c-4.421875 0-8.046875-3.574218-8.046875-8 0-4.421874 3.542968-8 7.953125-8h.09375c4.410156 0 8 3.578126 8 8 0 4.425782-3.589844 8-8 8zm0 0"/><path d="m82.953125 373.433594c-4.425781 0-8.050781-3.578125-8.050781-8 0-4.425782 3.546875-8 7.953125-8h.097656c4.40625 0 8 3.574218 8 8 0 4.421875-3.59375 8-8 8zm0 0"/><path d="m365.800781 90.585938c-4.425781 0-8.046875-3.578126-8.046875-8 0-4.425782 3.542969-8 7.949219-8h.097656c4.40625 0 8 3.574218 8 8 0 4.421874-3.601562 8-8 8zm0 0"/><path d="m124.375 405.207031c-4.421875 0-8.046875-3.574219-8.046875-8 0-4.421875 3.542969-8 7.953125-8h.09375c4.410156 0 8 3.578125 8 8 0 4.425781-3.589844 8-8 8zm0 0"/><path d="m324.375 58.808594c-4.421875 0-8.046875-3.578125-8.046875-8 0-4.425782 3.542969-8 7.953125-8h.09375c4.410156 0 8 3.574218 8 8 0 4.421875-3.589844 8-8 8zm0 0"/><path d="m172.609375 425.183594c-4.425781 0-8.050781-3.574219-8.050781-8 0-4.421875 3.546875-8 7.953125-8h.097656c4.40625 0 8 3.578125 8 8 0 4.425781-3.59375 8-8 8zm0 0"/><path d="m276.144531 38.824219c-4.425781 0-8.046875-3.578125-8.046875-8 0-4.425781 3.542969-8 7.949219-8h.097656c4.40625 0 8 3.574219 8 8 0 4.421875-3.601562 8-8 8zm0 0"/><path d="m216 312v-8c0-4.425781-3.574219-8-8-8s-8 3.574219-8 8v8zm0 0"/><path d="m232.128906 304v8h16v-8c0-4.425781-3.578125-8-8-8-4.425781 0-8 3.574219-8 8zm0 0"/></g><path d="m224 71.992188c-4.425781 0-8 3.574218-8 8v24c0 4.421874 3.574219 8 8 8s8-3.578126 8-8v-24c0-4.425782-3.574219-8-8-8zm0 0" fill="#ffce54"/><path d="m224 336.007812c-4.425781 0-8 3.578126-8 8v24c0 4.425782 3.574219 8 8 8s8-3.574218 8-8v-24c0-4.421874-3.574219-8-8-8zm0 0" fill="#ffce54"/><path d="m182.265625 85.945312c-1.511719-4.152343-6.128906-6.28125-10.25-4.785156-4.160156 1.503906-6.296875 6.105469-4.785156 10.246094l8.203125 22.546875c1.183594 3.246094 4.246094 5.261719 7.511718 5.261719.902344 0 1.839844-.160156 2.734376-.488282 4.160156-1.503906 6.296874-6.101562 4.785156-10.246093zm0 0" fill="#ffce54"/><path d="m272.558594 334.039062c-1.503906-4.152343-6.109375-6.296874-10.246094-4.78125-4.160156 1.503907-6.296875 6.101563-4.785156 10.246094l8.214844 22.542969c1.167968 3.25 4.25 5.265625 7.515624 5.265625.902344 0 1.832032-.160156 2.734376-.488281 4.160156-1.503907 6.296874-6.105469 4.785156-10.25zm0 0" fill="#ffce54"/><path d="m137.558594 108.542969c-2.832032-3.382813-7.855469-3.832031-11.261719-.984375-3.394531 2.832031-3.832031 7.882812-.984375 11.265625l15.421875 18.382812c1.578125 1.890625 3.839844 2.855469 6.144531 2.855469 1.816406 0 3.625-.613281 5.128906-1.871094 3.390626-2.832031 3.832032-7.878906.984376-11.261718zm0 0" fill="#ffce54"/><path d="m307.265625 310.792969c-2.832031-3.386719-7.875-3.832031-11.265625-.984375-3.390625 2.832031-3.832031 7.878906-.984375 11.261718l15.441406 18.378907c1.574219 1.886719 3.839844 2.855469 6.128907 2.855469 1.8125 0 3.636718-.617188 5.140624-1.871094 3.394532-2.832032 3.832032-7.882813.984376-11.265625zm0 0" fill="#ffce54"/><path d="m95.296875 158.9375 20.78125 11.984375c1.265625.726563 2.640625 1.070313 3.984375 1.070313 2.769531 0 5.472656-1.441407 6.9375-4.007813 2.214844-3.832031.886719-8.71875-2.9375-10.921875l-20.78125-11.984375c-3.832031-2.207031-8.722656-.886719-10.921875 2.9375-2.214844 3.824219-.886719 8.71875 2.9375 10.921875zm0 0" fill="#ffce54"/><path d="m352.71875 289.0625-20.78125-11.992188c-3.832031-2.207031-8.722656-.894531-10.9375 2.929688-2.199219 3.832031-.886719 8.71875 2.9375 10.929688l20.78125 11.992187c1.25.726563 2.625 1.070313 3.984375 1.070313 2.769531 0 5.457031-1.441407 6.9375-4 2.214844-3.824219.902344-8.71875-2.921875-10.929688zm0 0" fill="#ffce54"/><path d="m80.800781 206.886719 23.640625 4.152343c.46875.082032.917969.121094 1.390625.121094 3.816407 0 7.183594-2.734375 7.871094-6.617187.753906-4.351563-2.160156-8.503907-6.503906-9.261719l-23.640625-4.152344c-4.34375-.730468-8.488282 2.152344-9.261719 6.503906-.753906 4.34375 2.160156 8.496094 6.503906 9.253907zm0 0" fill="#ffce54"/><path d="m367.199219 241.113281-23.640625-4.160156c-4.34375-.746094-8.488282 2.152344-9.261719 6.503906-.753906 4.351563 2.160156 8.503907 6.503906 9.261719l23.640625 4.160156c.46875.082032.917969.121094 1.390625.121094 3.816407 0 7.183594-2.734375 7.871094-6.617188.753906-4.359374-2.160156-8.511718-6.503906-9.269531zm0 0" fill="#ffce54"/><path d="m113.6875 243.441406c-.765625-4.34375-4.839844-7.265625-9.261719-6.480468l-23.640625 4.183593c-4.34375.765625-7.25 4.917969-6.472656 9.269531.6875 3.875 4.0625 6.601563 7.855469 6.601563.472656 0 .9375-.039063 1.40625-.128906l23.640625-4.183594c4.34375-.757813 7.257812-4.910156 6.472656-9.261719zm0 0" fill="#ffce54"/><path d="m334.3125 204.558594c.6875 3.875 4.0625 6.601562 7.855469 6.601562.472656 0 .9375-.039062 1.40625-.128906l23.625-4.183594c4.359375-.769531 7.25-4.917968 6.488281-9.273437-.765625-4.34375-4.855469-7.238281-9.28125-6.476563l-23.621094 4.183594c-4.34375.773438-7.257812 4.925781-6.472656 9.277344zm0 0" fill="#ffce54"/><path d="m127 280c-2.199219-3.832031-7.113281-5.144531-10.9375-2.910156l-20.78125 12.015625c-3.816406 2.207031-5.128906 7.101562-2.90625 10.925781 1.472656 2.5625 4.160156 3.992188 6.921875 3.992188 1.359375 0 2.734375-.34375 4-1.078126l20.78125-12.015624c3.824219-2.210938 5.136719-7.097657 2.921875-10.929688zm0 0" fill="#ffce54"/><path d="m321 167.992188c1.488281 2.566406 4.167969 4 6.9375 4 1.359375 0 2.734375-.34375 3.984375-1.070313l20.78125-12.011719c3.832031-2.207031 5.144531-7.109375 2.921875-10.925781-2.21875-3.832031-7.113281-5.144531-10.921875-2.929687l-20.78125 12.007812c-3.824219 2.210938-5.136719 7.105469-2.921875 10.929688zm0 0" fill="#ffce54"/><path d="m140.734375 310.800781-15.421875 18.40625c-2.832031 3.386719-2.390625 8.433594 1 11.265625 1.503906 1.253906 3.3125 1.863282 5.128906 1.863282 2.292969 0 4.558594-.976563 6.144532-2.863282l15.421874-18.410156c2.832032-3.382812 2.390626-8.429688-1-11.261719-3.382812-2.847656-8.449218-2.386719-11.273437 1zm0 0" fill="#ffce54"/><path d="m301.128906 140.070312c2.277344 0 4.542969-.972656 6.144532-2.855468l15.421874-18.390625c2.832032-3.382813 2.394532-8.433594-1-11.273438-3.390624-2.839843-8.421874-2.375-11.261718.992188l-15.425782 18.394531c-2.839843 3.382812-2.390624 8.429688.984376 11.269531 1.496093 1.257813 3.320312 1.863281 5.136718 1.863281zm0 0" fill="#ffce54"/><path d="m185.6875 329.246094c-4.160156-1.484375-8.75.640625-10.246094 4.800781l-8.183594 22.5625c-1.503906 4.152344.636719 8.742187 4.796876 10.246094.890624.320312 1.816406.480469 2.722656.480469 3.277344 0 6.34375-2.015626 7.527344-5.273438l8.183593-22.558594c1.496094-4.152344-.648437-8.742187-4.800781-10.257812zm0 0" fill="#ffce54"/><path d="m262.296875 118.761719c.902344.328125 1.832031.484375 2.734375.484375 3.265625 0 6.34375-2.015625 7.511719-5.261719l8.199219-22.558594c1.515624-4.160156-.621094-8.746093-4.78125-10.25-4.160157-1.503906-8.738282.632813-10.25 4.785157l-8.199219 22.558593c-1.511719 4.144531.648437 8.726563 4.785156 10.242188zm0 0" fill="#ffce54"/></svg>